<?xml version="1.0" encoding="utf-8"?>
<!-- Generator: Adobe Illustrator 19.0.0, SVG Export Plug-In . SVG Version: 6.00 Build 0)  -->
<svg version="1.1" id="Layer_1" xmlns="http://www.w3.org/2000/svg" xmlns:xlink="http://www.w3.org/1999/xlink" x="0px" y="0px"
	 viewBox="-1613 943 800 800" style="enable-background:new -1613 943 800 800;" xml:space="preserve">
<style type="text/css">
	.st0{fill:#002929;}
</style>
<title>github [#142]</title>
<desc>Created with Sketch.</desc>
<g id="Page-1">
	<g>
		<g id="Dribbble-Light-Preview_8_" transform="translate(-140.000000, -7559.000000)">
			<g id="icons_8_" transform="translate(56.000000, 160.000000)">
				<path id="github-_x5B__x23_142_x5D__8_" class="st0" d="M-1129,8342c220.9,0,400,183.6,400,410.1
					c0,181.2-114.5,334.8-273.3,389.1c-20.3,4-27.5-8.8-27.5-19.7c0-13.5,0.5-57.7,0.5-112.6c0-38.2-12.8-63.2-27.2-75.9
					c89.1-10.2,182.7-44.8,182.7-202.4c0-44.8-15.5-81.3-41.2-110.1c4.2-10.4,17.9-52.1-3.9-108.6c0,0-33.5-11-109.9,42.1
					c-32-9.1-66.2-13.7-100.2-13.8c-34,0.2-68.2,4.7-100.1,13.8c-76.4-53-110-42.1-110-42.1c-21.7,56.5-8,98.2-3.9,108.6
					c-25.6,28.7-41.2,65.3-41.2,110.1c0,157.1,93.4,192.3,182.2,202.7c-11.4,10.2-21.8,28.3-25.4,54.8
					c-22.8,10.5-80.7,28.6-116.4-34.1c0,0-21.2-39.4-61.3-42.3c0,0-39-0.5-2.7,24.9c0,0,26.2,12.6,44.4,60c0,0,23.5,73.2,134.8,48.4
					c0.2,34.3,0.6,66.6,0.6,76.3c0,10.8-7.4,23.5-27.3,19.7c-159-54.2-273.6-207.9-273.6-389.2C-1529,8525.6-1349.9,8342-1129,8342"
					/>
			</g>
		</g>
	</g>
</g>
</svg>
