<?xml version="1.0" encoding="utf-8"?>
<!-- Generator: Adobe Illustrator 19.0.0, SVG Export Plug-In . SVG Version: 6.00 Build 0)  -->
<svg version="1.1" id="Layer_1" xmlns="http://www.w3.org/2000/svg" xmlns:xlink="http://www.w3.org/1999/xlink" x="0px" y="0px"
	 viewBox="-1613 943 800 800" style="enable-background:new -1613 943 800 800;" xml:space="preserve">
<style type="text/css">
	.st0{fill:#002929;}
	.st1{fill:#FFFFFF;}
</style>
<circle class="st0" cx="-1213" cy="1343" r="400"/>
<path class="st1" d="M-1213,1146.2c64.1,0,71.7,0.2,97,1.4c23.4,1.1,36.1,5,44.6,8.3c11.2,4.4,19.2,9.6,27.6,18
	c8.4,8.4,13.6,16.4,18,27.6c3.3,8.5,7.2,21.2,8.3,44.6c1.2,25.3,1.4,32.9,1.4,97c0,64.1-0.2,71.7-1.4,97c-1.1,23.4-5,36.1-8.3,44.6
	c-4.4,11.2-9.6,19.2-18,27.6c-8.4,8.4-16.4,13.6-27.6,18c-8.5,3.3-21.2,7.2-44.6,8.3c-25.3,1.2-32.9,1.4-97,1.4s-71.7-0.2-97-1.4
	c-23.4-1.1-36.1-5-44.6-8.3c-11.2-4.4-19.2-9.6-27.6-18s-13.6-16.4-18-27.6c-3.3-8.5-7.2-21.2-8.3-44.6c-1.2-25.3-1.4-32.9-1.4-97
	c0-64.1,0.2-71.7,1.4-97c1.1-23.4,5-36.1,8.3-44.6c4.4-11.2,9.6-19.2,18-27.6c8.4-8.4,16.4-13.6,27.6-18c8.5-3.3,21.2-7.2,44.6-8.3
	C-1284.7,1146.5-1277.1,1146.2-1213,1146.2z M-1213,1103c-65.2,0-73.4,0.3-99,1.4c-25.5,1.2-43,5.2-58.3,11.2
	c-15.8,6.1-29.2,14.3-42.5,27.7c-13.3,13.3-21.6,26.7-27.7,42.5c-5.9,15.3-10,32.7-11.2,58.3c-1.2,25.6-1.4,33.8-1.4,99
	c0,65.2,0.3,73.4,1.4,99c1.2,25.5,5.2,43,11.2,58.3c6.1,15.8,14.3,29.2,27.7,42.5c13.3,13.3,26.7,21.5,42.5,27.7
	c15.3,5.9,32.7,10,58.3,11.2c25.6,1.2,33.8,1.4,99,1.4s73.4-0.3,99-1.4c25.5-1.2,43-5.2,58.3-11.2c15.8-6.1,29.2-14.3,42.5-27.7
	c13.3-13.3,21.5-26.7,27.7-42.5c5.9-15.3,10-32.7,11.2-58.3c1.2-25.6,1.4-33.8,1.4-99c0-65.2-0.3-73.4-1.4-99
	c-1.2-25.5-5.2-43-11.2-58.3c-6.1-15.8-14.3-29.2-27.7-42.5c-13.3-13.3-26.7-21.6-42.5-27.7c-15.3-5.9-32.7-10-58.3-11.2
	C-1139.6,1103.3-1147.8,1103-1213,1103z"/>
<path class="st1" d="M-1212.9,1219.9c-68.1,0-123.2,55.2-123.2,123.2c0,68.1,55.2,123.2,123.2,123.2c68.1,0,123.2-55.2,123.2-123.2
	C-1089.6,1275-1144.8,1219.9-1212.9,1219.9z M-1212.9,1423.1c-44.2,0-80-35.8-80-80s35.8-80,80-80c44.2,0,80,35.8,80,80
	S-1168.7,1423.1-1212.9,1423.1z"/>
<path class="st1" d="M-1056,1214.9c0,15.9-12.9,28.8-28.8,28.8s-28.8-12.9-28.8-28.8c0-15.9,12.9-28.8,28.8-28.8
	S-1056,1199-1056,1214.9z"/>
</svg>
