<?xml version="1.0" encoding="utf-8"?>
<!-- Generator: Adobe Illustrator 19.0.0, SVG Export Plug-In . SVG Version: 6.00 Build 0)  -->
<svg version="1.1" id="Layer_1" xmlns="http://www.w3.org/2000/svg" xmlns:xlink="http://www.w3.org/1999/xlink" x="0px" y="0px"
	 viewBox="-1613 943 800 800" style="enable-background:new -1613 943 800 800;" xml:space="preserve">
<style type="text/css">
	.st0{fill:#002929;}
</style>
<path class="st0" d="M-1213,943c-220.9,0-400,179.1-400,400s179.1,400,400,400s400-179.1,400-400S-992.1,943-1213,943z
	 M-1324.9,1510.3h-78v-249.5h78V1510.3z M-1366,1229.6h-0.6c-28.3,0-46.6-19.1-46.6-43.3c0-24.7,18.9-43.3,47.7-43.3
	s46.4,18.6,47,43.3C-1318.3,1210.3-1336.6,1229.6-1366,1229.6z M-1013,1510.3h-88.4v-129.1c0-33.8-13.8-56.9-44.2-56.9
	c-23.3,0-36.3,15.6-42.2,30.6c-2.2,5.3-1.9,12.8-1.9,20.5v134.8h-87.7c0,0,1.1-228.7,0-249.5h87.7v39.2
	c5.2-17.2,33.1-41.6,77.8-41.6c55.5,0,98.9,35.9,98.9,113.1V1510.3z"/>
</svg>
