<?xml version="1.0" encoding="utf-8"?>
<!-- Generator: Adobe Illustrator 19.0.0, SVG Export Plug-In . SVG Version: 6.00 Build 0)  -->
<svg version="1.1" id="Layer_1" xmlns="http://www.w3.org/2000/svg" xmlns:xlink="http://www.w3.org/1999/xlink" x="0px" y="0px"
	 viewBox="-1613 943 800 800" style="enable-background:new -1613 943 800 800;" xml:space="preserve">
<style type="text/css">
	.st0{fill:#002929;}
	.st1{fill:#FFFFFF;}
</style>
<circle class="st0" cx="-1213" cy="1343" r="400"/>
<path class="st1" d="M-1209.6,1156.2c16.5,0,72.4,4.6,98.8,63.7c8.8,19.9,6.7,53.7,5,80.8l-0.1,1c-0.2,3-0.4,5.8-0.5,8.5
	c1.2,0.8,3.4,1.5,6.7,1.5c5-0.2,11-2,17.2-5c2.7-1.5,5.7-1.7,7.7-1.7c3,0,6,0.5,8.5,1.5c7.5,2.5,12.3,8,12.3,14
	c0.2,7.5-6.5,14-20.2,19.5c-1.5,0.5-3.5,1.3-5.7,2c-7.5,2.3-19,6-22.2,13.5c-1.5,3.7-1,8.8,2,14.5l0.2,0.2
	c1,2.3,25.5,57.9,79.8,66.9c4.2,0.7,7.3,4.5,7,8.5c0,1.3-0.2,2.5-0.8,3.8c-4,9.5-21.3,16.5-52.4,21.2c-1,1.5-2,6.3-2.7,9.5
	c-0.5,3-1.3,6-2.3,9.2c-1.3,4.5-4.5,6.7-9.2,6.7h-0.5c-2.3,0-5.2-0.5-9-1.3c-6-1.3-12.7-2.3-21.3-2.3c-5,0-10,0.2-15.2,1.3
	c-10,1.7-18.8,7.7-28.8,14.8c-14.2,10-30.5,21.5-54.9,21.5c-1,0-2-0.2-3-0.2h-2.5c-24.5,0-40.5-11.3-54.7-21.5
	c-10-7-18.4-13-28.4-14.8c-5.2-0.8-10.5-1.3-15.5-1.3c-9,0-15.9,1.5-21.2,2.5c-3.5,0.7-6.5,1.3-9,1.3c-6.3,0-8.8-3.8-9.7-7
	c-1-3.2-1.5-6.5-2.3-9.5c-0.8-3-1.7-8.2-2.7-9.5c-32-3.7-49.1-10.7-53.1-20.5c-0.5-1-0.9-2.5-0.9-3.8c-0.2-4.1,2.7-7.7,7-8.5
	c54.4-9,78.8-64.7,79.8-67l0.2-0.5c3-5.8,3.8-10.8,2-14.5c-3.3-7.3-14.8-10.9-22.2-13.5c-2-0.5-4-1.3-5.8-2
	c-18.4-7.3-20.9-15.5-19.9-21.3c1.5-8,11.3-13.2,19.5-13.2c2.4,0,4.5,0.5,6.4,1.3c7,3.2,13.1,5,18.4,5c3.9,0,6.4-1,7.7-1.7l-0.8-9.5
	c-1.6-27.1-3.8-60.9,5.1-80.6c25.6-58.8,81.4-63.3,97.9-63.3l7-0.2L-1209.6,1156.2L-1209.6,1156.2z"/>
</svg>
