<?xml version="1.0" encoding="utf-8"?>
<!-- Generator: Adobe Illustrator 19.0.0, SVG Export Plug-In . SVG Version: 6.00 Build 0)  -->
<svg version="1.1" id="Layer_1" xmlns="http://www.w3.org/2000/svg" xmlns:xlink="http://www.w3.org/1999/xlink" x="0px" y="0px"
	 viewBox="-1613 943 800 800" style="enable-background:new -1613 943 800 800;" xml:space="preserve">
<style type="text/css">
	.st0{fill:#002929;}
</style>
<path class="st0" d="M-814,1343c0,220.9-179.1,400-400,400s-400-179.1-400-400s179.1-400,400-400S-814,1122.1-814,1343z
	 M-962.5,1343.3c0-138.9-112.6-251.5-251.5-251.5s-251.5,112.6-251.5,251.5s112.6,251.5,251.5,251.5l0,0
	C-1075.1,1594.8-962.5,1482.2-962.5,1343.3L-962.5,1343.3L-962.5,1343.3z M-1331.7,1323.3h-92.9c7.4-77.4,56.6-144.6,128.3-174.9
	c3.3-1.4,6.7-2.7,10-4C-1315.7,1199.5-1331.2,1260.9-1331.7,1323.3z M-1331.7,1363.3c0.4,62.4,16,123.8,45.4,178.8
	c-3.4-1.2-6.8-2.6-10.1-4c-71.7-30.2-121-97.4-128.3-174.9L-1331.7,1363.3z M-1291.7,1323.3c0.9-23.5,3.6-47,8.2-70.1
	c4.5-24.4,12-48.1,22.3-70.8c14.5-30.8,33-50.6,47.3-50.6s32.8,19.9,47.3,50.6c10.2,22.6,17.7,46.4,22.3,70.8
	c4.5,23.1,7.3,46.6,8.2,70.1H-1291.7z M-1136.3,1363.3c-0.9,23.5-3.6,47-8.2,70.1c-4.6,24.4-12,48.1-22.3,70.8
	c-14.4,30.8-33,50.7-47.3,50.7s-32.8-19.9-47.3-50.7c-10.2-22.6-17.7-46.4-22.3-70.8c-4.5-23.1-7.3-46.6-8.2-70.1H-1136.3z
	 M-1064.5,1193.8c34.8,34.7,56.4,80.6,61,129.6h-92.9c-0.4-62.4-16-123.8-45.4-178.8c3.4,1.2,6.8,2.6,10.1,4
	C-1106.6,1159-1083.7,1174.4-1064.5,1193.8L-1064.5,1193.8z M-1096.4,1363.3h92.9c-7.4,77.4-56.6,144.6-128.3,174.9
	c-3.3,1.4-6.7,2.8-10,4C-1112.3,1487.1-1096.7,1425.7-1096.4,1363.3L-1096.4,1363.3z"/>
</svg>
